<svg xmlns="http://www.w3.org/2000/svg" viewBox="0 0 64 64" role="img" aria-label="RustClaw logo">
  <defs>
    <linearGradient id="rustclaw-bg" x1="10" y1="6" x2="55" y2="58" gradientUnits="userSpaceOnUse">
      <stop offset="0" stop-color="#ffb978"/>
      <stop offset="0.5" stop-color="#ff7d3f"/>
      <stop offset="1" stop-color="#bf4622"/>
    </linearGradient>
    <linearGradient id="rustclaw-mark" x1="20" y1="14" x2="44" y2="50" gradientUnits="userSpaceOnUse">
      <stop offset="0" stop-color="#fffaf2"/>
      <stop offset="1" stop-color="#ffe2c0"/>
    </linearGradient>
    <filter id="rustclaw-shadow" x="-20%" y="-20%" width="140%" height="140%">
      <feDropShadow dx="0" dy="5" stdDeviation="4" flood-color="#5c220f" flood-opacity="0.3"/>
    </filter>
  </defs>
  <rect x="6" y="6" width="52" height="52" rx="18" fill="url(#rustclaw-bg)" filter="url(#rustclaw-shadow)"/>
  <g fill="none" stroke="#c9532a" stroke-width="3.4" stroke-linecap="round" stroke-linejoin="round" opacity="0.55">
    <path d="M16.5 19.5c-3.6 0-6.3 1.4-7.9 3.6 1.6 2.3 4.3 3.6 7.9 3.6"/>
    <path d="M9.3 18.4l4.6 4.7-4.6 4.7"/>
    <path d="M47.5 37.5c3.6 0 6.3 1.4 7.9 3.6-1.6 2.3-4.3 3.6-7.9 3.6"/>
    <path d="M54.7 36.4l-4.6 4.7 4.6 4.7"/>
  </g>
  <path d="M22 46V18h12.4c5.7 0 9.4 3.3 9.4 8.4 0 3.6-1.9 6.3-5.2 7.6L45.5 46h-7.9l-5.9-9.9h-2.9V46H22Zm6.9-15.3h4.9c2.1 0 3.4-1 3.4-2.8s-1.3-2.8-3.4-2.8h-4.9v5.6Z" fill="url(#rustclaw-mark)"/>
</svg>
